<svg xmlns="http://www.w3.org/2000/svg" viewBox="0 0 500 500" width="500" height="500">
  <defs>
    <linearGradient id="topGradient" x1="0%" y1="0%" x2="100%" y2="100%">
      <stop offset="0%" style="stop-color:#00c6fb;stop-opacity:1" />
      <stop offset="100%" style="stop-color:#005bea;stop-opacity:1" />
    </linearGradient>
    <linearGradient id="bottomGradient" x1="0%" y1="0%" x2="100%" y2="100%">
      <stop offset="0%" style="stop-color:#005bea;stop-opacity:1" />
      <stop offset="100%" style="stop-color:#00c6fb;stop-opacity:1" />
    </linearGradient>
  </defs>
  <path d="M 140 170 L 250 80 L 360 140 L 300 230 C 250 230, 210 200, 210 170 C 210 140, 250 110, 300 110 L 190 50 L 80 110 L 140 170 Z" fill="url(#topGradient)" />
  <path d="M 360 330 L 250 420 L 140 360 L 200 270 C 250 270, 290 300, 290 330 C 290 360, 250 390, 200 390 L 310 450 L 420 390 L 360 330 Z" fill="url(#bottomGradient)" />
</svg>
